<svg width="171" height="28" viewBox="0 0 171 28" fill="none" xmlns="http://www.w3.org/2000/svg">
<path d="M161.035 20.3366C156.862 20.3366 154.453 17.8439 154.453 13.8948C154.453 9.9738 157.002 7.45312 161.203 7.45312C164.06 7.45312 166.104 8.68546 166.552 11.1221H166.776V7.7332H170.697V19.7204C170.697 24.6217 167.729 26.8063 162.715 26.8063C158.178 26.8063 155.321 24.7898 155.321 21.2608H159.522C159.522 22.8292 160.139 23.3054 162.995 23.3054C165.684 23.3054 166.496 22.7452 166.496 20.0005V16.8356H166.272C165.824 18.9082 164.172 20.3366 161.035 20.3366ZM158.682 13.8948C158.682 15.9674 159.859 16.7236 162.491 16.7236C165.18 16.7236 166.496 15.9674 166.496 14.0349V13.7268C166.496 11.8223 165.152 11.0941 162.547 11.0941C159.859 11.0941 158.682 11.8223 158.682 13.8948Z" fill="#1D1C2A"/>
<path d="M141.435 21.7649H137.234V7.7332H141.127V12.0464H141.379C141.744 9.69372 143.424 7.45312 147.093 7.45312C150.93 7.45312 152.751 9.91778 152.751 13.0266V21.7649H148.549V14.427C148.549 12.1864 147.625 11.2341 145.048 11.2341C142.388 11.2341 141.435 12.2984 141.435 14.6791V21.7649Z" fill="#1D1C2A"/>
<path d="M135.033 6.30488H130.832V3H135.033V6.30488ZM135.033 21.765H130.832V7.73326H135.033V21.765Z" fill="#1D1C2A"/>
<path d="M118.045 21.765H113.844V3H118.045V12.9427H121.238L124.823 7.73326H129.808L124.683 14.5111L129.724 21.765H124.767L121.266 16.6957H118.045V21.765Z" fill="#1D1C2A"/>
<path d="M101.857 22.045C98.8322 22.045 97.0117 20.6446 97.0117 18.292C97.0117 16.2195 98.5521 14.9311 101.549 14.623L107.571 14.0069V13.4747C107.571 11.6542 106.758 11.1501 104.518 11.1501C102.389 11.1501 101.521 11.7103 101.521 13.3067V13.4187H97.2918V13.3347C97.2918 9.86177 100.205 7.45312 104.826 7.45312C109.503 7.45312 111.716 9.86177 111.716 13.5307V21.7649H107.795V18.5441H107.571C106.926 20.7287 104.966 22.045 101.857 22.045ZM101.241 18.0119C101.241 18.7681 101.829 19.0762 103.061 19.0762C105.918 19.0762 107.459 18.4041 107.571 16.4155L102.697 16.9757C101.689 17.0597 101.241 17.3398 101.241 18.0119Z" fill="#1D1C2A"/>
<path d="M83.8886 21.765H79.6875V3H83.8886V12.0184H84.1127C84.5608 9.63777 86.2132 7.45319 89.7982 7.45319C93.5792 7.45319 95.4277 9.91785 95.4277 13.1667V21.765H91.2266V14.4271C91.2266 12.0744 90.2183 11.2342 87.5856 11.2342C84.7569 11.2342 83.8886 12.3825 83.8886 14.7351V21.765Z" fill="#1D1C2A"/>
<path d="M69.9594 22.045C65.1701 22.045 61.9492 19.1883 61.9492 14.7631C61.9492 10.2819 65.1701 7.45312 69.9594 7.45312C74.7486 7.45312 77.9695 10.2819 77.9695 14.7631C77.9695 19.1883 74.7486 22.045 69.9594 22.045ZM69.9594 18.32C72.7881 18.32 73.7964 17.2277 73.7964 14.7631C73.7964 12.2984 72.7881 11.1501 69.9594 11.1501C67.1026 11.1501 66.1223 12.2984 66.1223 14.7631C66.1223 17.2277 67.1026 18.32 69.9594 18.32Z" fill="#1D1C2A"/>
<path d="M60.5887 21.765H43V17.984L54.0349 7.08909V6.78101H43.2521V3H60.3646V6.78101L48.9656 17.6759V17.984H60.5887V21.765Z" fill="#1D1C2A"/>
<path d="M0.015625 27.8314C0.015625 27.8314 11.8321 5.81404 26.1602 0.0847713C26.1602 0.0847713 29.7348 -0.505041 34.2219 1.42688C34.2219 1.42688 29.3721 7.92465 28.1755 9.20835C26.3046 10.6777 24.8639 11.7041 20.2083 14.2761C6.99104 21.5782 0.015625 27.8314 0.015625 27.8314Z" fill="url(#paint0_linear_2008_56)"/>
<path d="M3.43359 23.1227C10.3521 13.9152 22.5916 0.917412 30.2531 2.37402Z" fill="url(#paint1_linear_2008_56)"/>
<path d="M0.0155682 24.6175C0.0155682 24.6175 7.58078 5.41677 18.0421 0.354221C18.0421 0.354221 4.62594 -0.540907 2.15174 2.82565C-0.322464 6.1922 0.0155682 24.6175 0.0155682 24.6175Z" fill="url(#paint2_linear_2008_56)"/>
<path d="M1.57422 16.703C1.77551 14.3756 1.97622 12.0482 2.17751 9.72071C2.33714 7.8709 2.52963 5.92799 3.59595 4.39737C4.46216 3.15356 5.83071 2.31684 7.2738 1.81376C8.71748 1.31127 10.2486 1.11293 11.7668 0.91748" fill="url(#paint3_linear_2008_56)"/>
<path d="M3.43359 27.8441C3.43359 27.8441 23.7742 19.8892 28.1774 11.8313C28.1774 11.8313 28.732 24.3671 26.4414 25.9787C22.4303 28.8011 3.43359 27.8441 3.43359 27.8441Z" fill="url(#paint4_linear_2008_56)"/>
<path d="M27.0693 17.5623C26.8252 19.3629 26.581 21.1636 26.3369 22.9642C26.2682 23.469 26.1914 23.9958 25.8915 24.4104C25.5071 24.9418 24.8381 25.1824 24.2054 25.3744C22.0311 26.0353 19.7881 26.4771 17.5234 26.6916" fill="url(#paint5_linear_2008_56)"/>
<defs>
<linearGradient id="paint0_linear_2008_56" x1="0.0154607" y1="13.9156" x2="34.2217" y2="13.9156" gradientUnits="userSpaceOnUse">
<stop stop-color="#D16FFF"/>
<stop offset="0.335" stop-color="#E9B9FF"/>
<stop offset="0.7143" stop-color="#EDC6FF"/>
<stop offset="1" stop-color="#C241FE"/>
</linearGradient>
<linearGradient id="paint1_linear_2008_56" x1="14.241" y1="9.31606" x2="16.5877" y2="12.504" gradientUnits="userSpaceOnUse">
<stop stop-color="#C955FF"/>
<stop offset="1" stop-color="#EDC6FF" stop-opacity="0"/>
</linearGradient>
<linearGradient id="paint2_linear_2008_56" x1="-0.000147963" y1="12.4319" x2="18.0423" y2="12.4319" gradientUnits="userSpaceOnUse">
<stop stop-color="#EDC6FF"/>
<stop offset="0.7143" stop-color="#D16CFF"/>
<stop offset="1" stop-color="#EDC6FF"/>
</linearGradient>
<linearGradient id="paint3_linear_2008_56" x1="2.47981" y1="5.8811" x2="5.96505" y2="8.3905" gradientUnits="userSpaceOnUse">
<stop stop-color="#EABDFF"/>
<stop offset="1" stop-color="#F2D5FF" stop-opacity="0"/>
</linearGradient>
<linearGradient id="paint4_linear_2008_56" x1="3.43359" y1="19.9157" x2="28.2366" y2="19.9157" gradientUnits="userSpaceOnUse">
<stop stop-color="#D988FF"/>
<stop offset="0.7143" stop-color="#EDC6FF"/>
<stop offset="0.9998" stop-color="#D883FF"/>
<stop offset="0.9999" stop-color="#EDC6FF"/>
<stop offset="1" stop-color="#EDC6FF"/>
</linearGradient>
<linearGradient id="paint5_linear_2008_56" x1="24.9087" y1="25.0705" x2="22.4607" y2="22.2288" gradientUnits="userSpaceOnUse">
<stop stop-color="#CE64FF"/>
<stop offset="1" stop-color="#EDC6FF" stop-opacity="0"/>
</linearGradient>
</defs>
</svg>
