<svg width="839" height="134" viewBox="0 0 839 134" fill="none" xmlns="http://www.w3.org/2000/svg">
<path d="M14.5819 55.2708C17.6891 57.2885 21.3208 59.1447 25.3157 60.7588C29.2703 62.3326 33.6688 63.6642 38.2286 64.7537C42.7885 65.8433 47.6712 66.5696 52.5942 67.0135C55.0557 67.2556 57.5576 67.417 60.0595 67.4977C61.3507 67.5381 62.5613 67.5381 63.8123 67.5784H67.6861C72.6092 67.3767 77.6936 66.9731 82.5359 66.2468C87.3783 65.5608 92.1399 64.5923 96.5787 63.301C101.058 62.0097 105.255 60.4763 109.048 58.7412C112.841 57.006 116.271 55.0691 119.096 53.0111C121.92 50.9127 124.18 48.774 125.834 46.7161C127.449 44.6581 128.417 42.7211 128.982 41.1474C129.103 40.7439 129.224 40.3403 129.345 40.0175C129.426 39.6947 129.466 39.3719 129.547 39.1297C127.247 33.8435 124.22 28.7994 120.508 24.1589C119.943 26.5397 118.611 29.889 115.948 32.9154C113.365 35.9419 109.693 38.6859 105.295 40.9053C100.937 43.165 95.812 44.8598 90.1626 45.9494C87.3379 46.5546 84.3922 46.9582 81.3657 47.2406C78.2989 47.4828 75.1514 47.6038 71.9635 47.5635C70.3494 47.5635 68.7353 47.4828 67.0405 47.4021C66.2334 47.3617 65.4667 47.3213 64.6193 47.2406C63.7719 47.1599 62.9245 47.0792 62.0771 46.9985C58.7278 46.595 55.3382 45.9897 51.9082 45.2634C48.5186 44.537 45.0886 43.6089 41.699 42.3983C40.0445 41.793 38.3497 41.107 36.6952 40.3807C35.0408 39.614 33.3863 38.8069 31.7722 37.8788C28.5843 36.0629 25.4772 33.8839 22.9349 31.0188C21.684 29.5661 20.5541 27.9924 19.7067 26.1765C18.8593 24.3606 18.4154 22.3834 18.4154 20.3657C18.4154 20.164 18.4154 19.9622 18.4154 19.8008C11.6362 27.0643 6.71314 35.4173 3.64633 44.2949C4.45338 45.7476 5.50255 47.3213 6.91489 48.8548C8.85183 51.0338 11.4344 53.2532 14.5819 55.2708Z" fill="#1CA6D8"/>
<path d="M9.6212 85.9825C13.1319 87.9598 17.1672 89.7757 21.5656 91.3091C26.0044 92.8425 30.766 94.0934 35.7698 95.1023C40.7735 96.1111 46.0194 96.8374 51.3459 97.2813C54.0496 97.4831 56.7129 97.6445 59.4568 97.7252C60.8288 97.7655 62.1201 97.7655 63.4921 97.7655L67.6484 97.7252C73.0154 97.6041 78.5033 97.2006 83.7895 96.5146C89.0758 95.8286 94.2409 94.8601 99.1236 93.6496C104.047 92.439 108.647 90.9863 112.884 89.2511C117.081 87.5563 120.914 85.6194 124.142 83.6017C125.797 82.5929 127.249 81.5034 128.581 80.4542C129.872 79.3647 131.043 78.3155 132.011 77.226C133.222 75.9347 134.15 74.6838 134.836 73.5135C135.602 66.6939 135.28 59.7129 133.908 52.8933C133.827 53.0143 133.706 53.1354 133.585 53.2565C131.164 56.0408 128.137 58.6234 124.586 60.9638C121.035 63.3043 117 65.3219 112.642 67.0975C108.284 68.8326 103.603 70.2853 98.6797 71.4152C93.7567 72.5451 88.6319 73.3521 83.4264 73.8364C78.2209 74.3206 72.9347 74.5224 67.5677 74.4013L63.6939 74.2802C62.3622 74.1592 60.9902 74.1188 59.699 73.9978C57.076 73.7557 54.4531 73.5135 51.8705 73.11C46.7054 72.3433 41.7016 71.3345 36.94 70.0028C32.138 68.6308 27.6185 67.0167 23.4622 65.1202C19.3059 63.1832 15.5127 61.0445 12.2441 58.7041C8.97556 56.3233 6.27192 53.7407 4.17358 51.1581C3.48759 50.3107 2.88229 49.4633 2.35771 48.6562C-0.426633 58.9462 -0.749446 69.7204 1.4296 80.1314C2.39807 81.0595 3.56829 81.9876 4.77887 82.9157C6.27192 83.9245 7.88603 85.0141 9.6212 85.9825Z" fill="#1CA6D8"/>
<path d="M21.1211 20.4007C21.1211 23.6289 22.7352 26.7361 25.0757 29.1573C26.2056 30.3678 27.5372 31.4574 28.9092 32.4662C30.3215 33.3943 31.8146 34.2417 33.3077 35.0488C39.4816 38.0752 46.2205 39.5683 52.7173 40.2946C55.9859 40.6981 59.2141 40.8192 62.402 40.7788C63.1687 40.7788 63.9354 40.7788 64.7021 40.7385C65.4688 40.7385 66.3162 40.6981 67.0829 40.6578C68.5759 40.5771 70.1497 40.456 71.6427 40.2946C74.5885 40.0121 77.4535 39.5279 80.1975 39.0033C82.9012 38.4384 85.5241 37.7927 87.9453 37.0664C92.8279 35.5733 97.065 33.7575 100.414 31.8205C103.764 29.8836 106.265 27.7853 107.678 25.9694C109.13 24.1535 109.655 22.7412 109.816 21.8131C109.857 21.6113 109.816 21.5306 109.857 21.4095L109.938 21.3692C109.938 21.3692 109.938 21.2481 109.938 21.1674C109.938 21.0464 109.938 20.9253 109.938 20.8042C109.938 20.6428 109.938 20.4814 109.938 20.3604C109.938 20.32 109.938 20.2393 109.938 20.0375C109.938 19.7954 109.897 19.4726 109.816 19.0287C109.615 18.1006 109.13 16.6883 107.678 14.8724C106.225 13.0565 103.764 10.9582 100.414 9.02123C98.6387 7.97206 96.5404 6.96325 94.2806 6.03513C94.442 6.51937 94.5228 7.0036 94.6035 7.40713C94.7649 8.77912 94.7649 9.54582 94.7649 9.54582V9.9897C94.7649 9.9897 94.7245 10.4336 94.6842 11.2406C94.6035 11.8459 94.3613 13.0162 93.9982 14.025C93.635 14.8724 93.1911 15.9216 92.5455 16.8497C91.2945 18.7866 89.398 20.6428 87.1382 22.0955C84.8784 23.5482 82.1345 24.6377 79.1887 25.2834C76.243 25.929 73.0954 26.1711 69.7865 26.0097C69.383 26.0097 68.9391 25.9694 68.5759 25.929L67.9707 25.8483H67.6478C67.7285 25.8483 67.4864 25.8483 67.5268 25.8483L67.4057 25.808H67.2847C66.4776 25.6869 65.7916 25.6062 64.9442 25.4448C63.1687 25.122 61.5142 24.6781 59.8598 24.1535C56.5105 23.1043 53.1612 21.6113 50.2154 19.3112C49.8119 19.0691 49.4891 18.7059 49.1663 18.4234L48.6417 17.9392L48.1575 17.4146C47.4715 16.769 46.8662 15.9619 46.3416 15.1549C45.2924 13.5004 44.5661 11.5231 44.5661 9.46512L44.6064 8.13348C44.6871 7.60889 44.8485 7.08431 44.9696 6.51937C45.131 6.03513 45.3328 5.59125 45.5345 5.10702C45.7363 4.70349 46.0188 4.25961 46.2609 3.85609C46.8258 3.04903 47.3908 2.24198 48.0768 1.59633L48.1575 1.51562C38.6746 4.38067 29.6759 9.34406 21.9282 16.4461C21.4036 17.7374 21.1211 19.0691 21.1211 20.4007Z" fill="#1CA6D8"/>
<path d="M82.0964 126.569C77.2944 126.892 72.4925 127.013 67.5694 126.892L64.0184 126.731C62.8078 126.65 61.5569 126.61 60.3866 126.489C57.9655 126.327 55.5847 126.085 53.2442 125.762C48.5229 125.157 43.8824 124.35 39.4839 123.301C35.0451 122.373 30.8081 121.081 26.8939 119.629C26.2886 119.387 25.6429 119.144 25.0376 118.902C47.958 137.505 80.1998 138.877 104.492 123.018C101.789 123.745 98.9639 124.35 96.0988 124.875C91.539 125.682 86.858 126.247 82.0964 126.569Z" fill="#1CA6D8"/>
<path d="M83.7331 10.3556C83.7331 9.99241 83.7734 9.66959 83.7734 9.46782C83.7734 9.42747 83.7734 9.34676 83.7734 9.145C83.7734 9.02394 83.7331 8.90288 83.6927 8.70112C83.5717 8.49935 83.5717 8.25724 83.3699 7.89406C83.0067 7.28877 82.3207 6.40101 81.1505 5.43255C80.0206 4.50443 78.3662 3.45526 76.3889 2.5675C75.8643 2.36574 75.3397 2.16398 74.8151 1.92186C74.2905 1.7201 73.7256 1.51833 73.1203 1.31657C72.5554 1.15516 71.9097 0.953395 71.3044 0.791984C70.6991 0.670925 70.1746 0.509513 69.4886 0.348102C69.3272 0.348102 69.1254 0.30775 68.964 0.267397C65.9375 0.0656337 62.8304 -0.0554262 59.6425 0.0252793C58.553 0.18669 57.5038 0.428807 56.4143 0.711277C56.0108 0.832335 55.6879 0.953393 55.3248 1.07445C54.9616 1.19551 54.5984 1.31657 54.2352 1.47798L53.1861 1.96221L52.1772 2.52715C49.5543 4.06055 47.3349 6.60278 47.3753 9.46782C47.3753 10.8802 47.8998 12.2522 48.7876 13.4224C49.6754 14.633 50.886 15.6014 52.1772 16.4085L53.1457 17.0541L54.1949 17.498C54.5581 17.6594 54.9212 17.7805 55.2844 17.9015C55.6476 18.0226 55.9704 18.2244 56.3739 18.2647C57.867 18.6682 59.36 18.9911 60.8531 19.0718C62.3461 19.2735 63.8392 19.2332 65.1708 19.1525C65.8568 19.1121 66.7042 19.0314 67.4306 18.9911C68.0762 18.87 68.7219 18.749 69.3675 18.6682C72.0308 18.184 74.4116 17.377 76.3889 16.4892C78.3662 15.6014 80.0206 14.5926 81.1505 13.6242C82.3207 12.6557 83.0067 11.7679 83.3699 11.1223C83.5717 10.8398 83.5717 10.5977 83.7331 10.3556C83.6524 10.3556 83.6927 10.3152 83.7331 10.3556Z" fill="#1CA6D8"/>
<path d="M28.3455 115.35C32.1387 116.52 36.2143 117.488 40.4917 118.255C44.7691 119.022 49.2482 119.546 53.8081 119.869C56.0678 120.03 58.3679 120.111 60.6681 120.151C61.8383 120.192 62.9682 120.151 64.098 120.192L67.6491 120.111C72.2089 119.99 76.8899 119.627 81.369 119.062C85.8482 118.497 90.2466 117.69 94.4433 116.722C98.5996 115.753 102.554 114.542 106.146 113.211C109.777 111.839 113.046 110.346 115.83 108.691C118.615 107.118 120.955 105.382 122.65 103.728C124.345 102.033 125.434 100.459 125.999 99.2084C126.604 97.9978 126.766 96.868 126.806 96.6258C126.806 96.6258 126.806 96.2223 126.847 96.0609C126.847 95.8591 126.847 95.6977 126.847 95.5363C126.847 95.2539 126.887 95.1328 126.887 95.1328C126.887 94.2854 127.129 93.4783 127.492 92.752C123.981 94.6082 120.148 96.303 116.072 97.675C111.351 99.3295 106.267 100.701 100.98 101.791C95.6942 102.881 90.2063 103.607 84.5569 104.051C78.9882 104.535 73.3388 104.696 67.5684 104.575L63.3717 104.414C61.9593 104.333 60.5066 104.253 59.1346 104.131C56.31 103.97 53.4853 103.688 50.7413 103.284C45.213 102.558 39.8057 101.589 34.6002 100.298C29.435 99.0067 24.512 97.4329 19.9521 95.617C15.3923 93.8415 11.2359 91.7028 7.56385 89.4027C5.90938 88.3939 4.37597 87.3044 2.96362 86.2148C5.6269 94.8503 10.0657 103.042 16.28 110.265C16.8046 110.628 17.4099 110.951 18.0152 111.274C21.082 112.807 24.5927 114.179 28.3455 115.35Z" fill="#1CA6D8"/>
<path d="M165.324 52V12.898H186.756C189.644 12.898 192.038 13.411 193.938 14.437C195.876 15.463 197.32 16.907 198.27 18.769C199.22 20.593 199.695 22.702 199.695 25.096C199.695 27.642 199.125 29.903 197.985 31.879C196.845 33.817 195.192 35.299 193.026 36.325L201.006 52H191.601L184.704 37.75H173.817V52H165.324ZM173.817 31.024H185.616C187.326 31.024 188.656 30.511 189.606 29.485C190.556 28.421 191.031 26.996 191.031 25.21C191.031 24.07 190.822 23.101 190.404 22.303C189.986 21.467 189.378 20.84 188.58 20.422C187.782 20.004 186.794 19.795 185.616 19.795H173.817V31.024ZM208.671 52V12.898H217.164V52H208.671ZM245.309 52.684C239.153 52.684 234.403 51.05 231.059 47.782C227.753 44.476 226.1 39.365 226.1 32.449C226.1 27.851 226.898 24.07 228.494 21.106C230.09 18.104 232.408 15.881 235.448 14.437C238.488 12.955 242.136 12.214 246.392 12.214C248.938 12.214 251.332 12.499 253.574 13.069C255.816 13.639 257.792 14.513 259.502 15.691C261.25 16.869 262.599 18.351 263.549 20.137C264.537 21.885 265.031 23.975 265.031 26.407H256.424C256.424 25.229 256.158 24.184 255.626 23.272C255.132 22.36 254.429 21.6 253.517 20.992C252.605 20.384 251.56 19.928 250.382 19.624C249.204 19.32 247.969 19.168 246.677 19.168C244.701 19.168 242.972 19.434 241.49 19.966C240.008 20.46 238.773 21.239 237.785 22.303C236.835 23.329 236.113 24.621 235.619 26.179C235.125 27.737 234.878 29.542 234.878 31.594V33.304C234.878 36.154 235.296 38.491 236.132 40.315C236.968 42.139 238.222 43.507 239.894 44.419C241.566 45.293 243.637 45.73 246.107 45.73C248.159 45.73 249.964 45.426 251.522 44.818C253.118 44.172 254.353 43.26 255.227 42.082C256.139 40.904 256.595 39.46 256.595 37.75V37.351H244.91V30.853H265.031V52H259.445L258.704 47.782C257.564 48.884 256.329 49.796 254.999 50.518C253.707 51.24 252.263 51.772 250.667 52.114C249.071 52.494 247.285 52.684 245.309 52.684ZM274.936 52V12.898H283.429V28.402H300.757V12.898H309.25V52H300.757V35.584H283.429V52H274.936ZM329.251 52V20.023H316.711V12.898H350.398V20.023H337.801V52H329.251ZM385.961 52.684C383.681 52.684 381.515 52.456 379.463 52C377.411 51.544 375.587 50.822 373.991 49.834C372.433 48.808 371.198 47.535 370.286 46.015C369.412 44.457 368.975 42.576 368.975 40.372C368.975 40.182 368.975 39.992 368.975 39.802C368.975 39.574 368.994 39.403 369.032 39.289H377.468C377.43 39.403 377.411 39.555 377.411 39.745C377.411 39.935 377.411 40.106 377.411 40.258C377.411 41.474 377.734 42.5 378.38 43.336C379.064 44.172 380.052 44.799 381.344 45.217C382.636 45.635 384.137 45.844 385.847 45.844C386.949 45.844 387.918 45.787 388.754 45.673C389.628 45.521 390.388 45.331 391.034 45.103C391.718 44.837 392.269 44.533 392.687 44.191C393.143 43.849 393.466 43.45 393.656 42.994C393.884 42.538 393.998 42.025 393.998 41.455C393.998 40.429 393.656 39.593 392.972 38.947C392.326 38.301 391.414 37.75 390.236 37.294C389.096 36.838 387.804 36.42 386.36 36.04C384.916 35.66 383.434 35.28 381.914 34.9C380.394 34.482 378.912 33.988 377.468 33.418C376.024 32.81 374.732 32.088 373.592 31.252C372.452 30.416 371.54 29.352 370.856 28.06C370.172 26.768 369.83 25.21 369.83 23.386C369.83 21.448 370.229 19.776 371.027 18.37C371.863 16.964 373.022 15.805 374.504 14.893C375.986 13.981 377.696 13.316 379.634 12.898C381.572 12.442 383.681 12.214 385.961 12.214C388.089 12.214 390.103 12.442 392.003 12.898C393.903 13.316 395.575 14 397.019 14.95C398.463 15.9 399.584 17.097 400.382 18.541C401.218 19.985 401.636 21.695 401.636 23.671V24.355H393.371V23.899C393.371 22.873 393.067 21.999 392.459 21.277C391.851 20.555 390.996 19.985 389.894 19.567C388.792 19.149 387.5 18.94 386.018 18.94C384.422 18.94 383.054 19.092 381.914 19.396C380.812 19.7 379.957 20.156 379.349 20.764C378.779 21.334 378.494 22.018 378.494 22.816C378.494 23.728 378.817 24.488 379.463 25.096C380.147 25.666 381.059 26.179 382.199 26.635C383.377 27.053 384.688 27.433 386.132 27.775C387.576 28.117 389.058 28.497 390.578 28.915C392.098 29.333 393.58 29.827 395.024 30.397C396.468 30.967 397.76 31.689 398.9 32.563C400.04 33.399 400.952 34.444 401.636 35.698C402.32 36.952 402.662 38.453 402.662 40.201C402.662 43.203 401.94 45.616 400.496 47.44C399.052 49.264 397.076 50.594 394.568 51.43C392.06 52.266 389.191 52.684 385.961 52.684ZM429.379 52.684C425.237 52.684 421.665 51.943 418.663 50.461C415.661 48.979 413.362 46.737 411.766 43.735C410.17 40.733 409.372 36.971 409.372 32.449C409.372 27.851 410.17 24.07 411.766 21.106C413.362 18.104 415.661 15.881 418.663 14.437C421.665 12.955 425.237 12.214 429.379 12.214C433.597 12.214 437.188 12.955 440.152 14.437C443.154 15.881 445.453 18.104 447.049 21.106C448.645 24.07 449.443 27.851 449.443 32.449C449.443 36.971 448.645 40.733 447.049 43.735C445.453 46.737 443.154 48.979 440.152 50.461C437.188 51.943 433.597 52.684 429.379 52.684ZM429.379 45.73C431.241 45.73 432.875 45.464 434.281 44.932C435.687 44.4 436.865 43.602 437.815 42.538C438.765 41.474 439.487 40.182 439.981 38.662C440.475 37.104 440.722 35.337 440.722 33.361V31.594C440.722 29.58 440.475 27.794 439.981 26.236C439.487 24.678 438.765 23.386 437.815 22.36C436.865 21.296 435.687 20.498 434.281 19.966C432.875 19.434 431.241 19.168 429.379 19.168C427.555 19.168 425.94 19.434 424.534 19.966C423.128 20.498 421.95 21.296 421 22.36C420.05 23.386 419.328 24.678 418.834 26.236C418.378 27.794 418.15 29.58 418.15 31.594V33.361C418.15 35.337 418.378 37.104 418.834 38.662C419.328 40.182 420.05 41.474 421 42.538C421.95 43.602 423.128 44.4 424.534 44.932C425.94 45.464 427.555 45.73 429.379 45.73ZM458.048 52V12.898H466.541V44.761H486.263V52H458.048ZM508.36 52.684C504.788 52.684 501.71 52.114 499.126 50.974C496.58 49.834 494.623 48.124 493.255 45.844C491.887 43.526 491.203 40.657 491.203 37.237V12.898H499.753V37.009C499.753 39.821 500.494 41.987 501.976 43.507C503.458 44.989 505.586 45.73 508.36 45.73C511.134 45.73 513.262 44.989 514.744 43.507C516.264 41.987 517.024 39.821 517.024 37.009V12.898H525.574V37.237C525.574 40.657 524.89 43.526 523.522 45.844C522.154 48.124 520.178 49.834 517.594 50.974C515.048 52.114 511.97 52.684 508.36 52.684ZM545.413 52V20.023H532.873V12.898H566.56V20.023H553.963V52H545.413ZM574.005 52V12.898H582.498V52H574.005ZM611.1 52.684C606.958 52.684 603.386 51.943 600.384 50.461C597.382 48.979 595.083 46.737 593.487 43.735C591.891 40.733 591.093 36.971 591.093 32.449C591.093 27.851 591.891 24.07 593.487 21.106C595.083 18.104 597.382 15.881 600.384 14.437C603.386 12.955 606.958 12.214 611.1 12.214C615.318 12.214 618.909 12.955 621.873 14.437C624.875 15.881 627.174 18.104 628.77 21.106C630.366 24.07 631.164 27.851 631.164 32.449C631.164 36.971 630.366 40.733 628.77 43.735C627.174 46.737 624.875 48.979 621.873 50.461C618.909 51.943 615.318 52.684 611.1 52.684ZM611.1 45.73C612.962 45.73 614.596 45.464 616.002 44.932C617.408 44.4 618.586 43.602 619.536 42.538C620.486 41.474 621.208 40.182 621.702 38.662C622.196 37.104 622.443 35.337 622.443 33.361V31.594C622.443 29.58 622.196 27.794 621.702 26.236C621.208 24.678 620.486 23.386 619.536 22.36C618.586 21.296 617.408 20.498 616.002 19.966C614.596 19.434 612.962 19.168 611.1 19.168C609.276 19.168 607.661 19.434 606.255 19.966C604.849 20.498 603.671 21.296 602.721 22.36C601.771 23.386 601.049 24.678 600.555 26.236C600.099 27.794 599.871 29.58 599.871 31.594V33.361C599.871 35.337 600.099 37.104 600.555 38.662C601.049 40.182 601.771 41.474 602.721 42.538C603.671 43.602 604.849 44.4 606.255 44.932C607.661 45.464 609.276 45.73 611.1 45.73ZM639.769 52V12.898H647.578L663.31 33.988C663.538 34.254 663.823 34.634 664.165 35.128C664.507 35.584 664.83 36.04 665.134 36.496C665.438 36.952 665.647 37.313 665.761 37.579H666.046C666.046 36.933 666.046 36.306 666.046 35.698C666.046 35.052 666.046 34.482 666.046 33.988V12.898H674.083V52H666.274L650.2 30.397C649.82 29.865 649.421 29.276 649.003 28.63C648.585 27.984 648.281 27.49 648.091 27.148H647.806C647.806 27.718 647.806 28.288 647.806 28.858C647.806 29.39 647.806 29.903 647.806 30.397V52H639.769ZM699.671 52.684C697.391 52.684 695.225 52.456 693.173 52C691.121 51.544 689.297 50.822 687.701 49.834C686.143 48.808 684.908 47.535 683.996 46.015C683.122 44.457 682.685 42.576 682.685 40.372C682.685 40.182 682.685 39.992 682.685 39.802C682.685 39.574 682.704 39.403 682.742 39.289H691.178C691.14 39.403 691.121 39.555 691.121 39.745C691.121 39.935 691.121 40.106 691.121 40.258C691.121 41.474 691.444 42.5 692.09 43.336C692.774 44.172 693.762 44.799 695.054 45.217C696.346 45.635 697.847 45.844 699.557 45.844C700.659 45.844 701.628 45.787 702.464 45.673C703.338 45.521 704.098 45.331 704.744 45.103C705.428 44.837 705.979 44.533 706.397 44.191C706.853 43.849 707.176 43.45 707.366 42.994C707.594 42.538 707.708 42.025 707.708 41.455C707.708 40.429 707.366 39.593 706.682 38.947C706.036 38.301 705.124 37.75 703.946 37.294C702.806 36.838 701.514 36.42 700.07 36.04C698.626 35.66 697.144 35.28 695.624 34.9C694.104 34.482 692.622 33.988 691.178 33.418C689.734 32.81 688.442 32.088 687.302 31.252C686.162 30.416 685.25 29.352 684.566 28.06C683.882 26.768 683.54 25.21 683.54 23.386C683.54 21.448 683.939 19.776 684.737 18.37C685.573 16.964 686.732 15.805 688.214 14.893C689.696 13.981 691.406 13.316 693.344 12.898C695.282 12.442 697.391 12.214 699.671 12.214C701.799 12.214 703.813 12.442 705.713 12.898C707.613 13.316 709.285 14 710.729 14.95C712.173 15.9 713.294 17.097 714.092 18.541C714.928 19.985 715.346 21.695 715.346 23.671V24.355H707.081V23.899C707.081 22.873 706.777 21.999 706.169 21.277C705.561 20.555 704.706 19.985 703.604 19.567C702.502 19.149 701.21 18.94 699.728 18.94C698.132 18.94 696.764 19.092 695.624 19.396C694.522 19.7 693.667 20.156 693.059 20.764C692.489 21.334 692.204 22.018 692.204 22.816C692.204 23.728 692.527 24.488 693.173 25.096C693.857 25.666 694.769 26.179 695.909 26.635C697.087 27.053 698.398 27.433 699.842 27.775C701.286 28.117 702.768 28.497 704.288 28.915C705.808 29.333 707.29 29.827 708.734 30.397C710.178 30.967 711.47 31.689 712.61 32.563C713.75 33.399 714.662 34.444 715.346 35.698C716.03 36.952 716.372 38.453 716.372 40.201C716.372 43.203 715.65 45.616 714.206 47.44C712.762 49.264 710.786 50.594 708.278 51.43C705.77 52.266 702.901 52.684 699.671 52.684ZM750.515 52.684C747.323 52.684 744.644 52.19 742.478 51.202C740.312 50.214 738.678 48.846 737.576 47.098C736.474 45.35 735.923 43.336 735.923 41.056V40.087H743.618V41.17C743.618 42.842 744.169 44.153 745.271 45.103C746.411 46.053 748.045 46.528 750.173 46.528C752.225 46.528 753.821 46.053 754.961 45.103C756.101 44.153 756.671 42.69 756.671 40.714C756.671 39.232 756.367 38.092 755.759 37.294C755.151 36.496 754.353 35.926 753.365 35.584C752.415 35.242 751.37 35.071 750.23 35.071H746.753V29.086H750.173C751.237 29.086 752.187 28.896 753.023 28.516C753.897 28.098 754.581 27.49 755.075 26.692C755.607 25.894 755.873 24.868 755.873 23.614C755.873 22.436 755.626 21.467 755.132 20.707C754.676 19.909 754.011 19.32 753.137 18.94C752.301 18.56 751.332 18.37 750.23 18.37C749.128 18.37 748.121 18.56 747.209 18.94C746.335 19.32 745.651 19.89 745.157 20.65C744.663 21.41 744.416 22.36 744.416 23.5V24.355H736.835V22.93C736.835 20.802 737.386 18.94 738.488 17.344C739.628 15.71 741.224 14.456 743.276 13.582C745.328 12.67 747.703 12.214 750.401 12.214C753.099 12.214 755.455 12.632 757.469 13.468C759.521 14.304 761.098 15.539 762.2 17.173C763.34 18.769 763.91 20.669 763.91 22.873C763.91 24.355 763.625 25.666 763.055 26.806C762.523 27.946 761.801 28.915 760.889 29.713C759.977 30.473 758.932 31.119 757.754 31.651V31.879C759.806 32.487 761.478 33.608 762.77 35.242C764.1 36.838 764.765 38.909 764.765 41.455C764.727 43.735 764.119 45.711 762.941 47.383C761.801 49.055 760.167 50.366 758.039 51.316C755.911 52.228 753.403 52.684 750.515 52.684ZM786.807 52.684C784.413 52.684 782.285 52.342 780.423 51.658C778.599 50.974 777.041 49.891 775.749 48.409C774.457 46.927 773.488 44.97 772.842 42.538C772.196 40.068 771.873 37.066 771.873 33.532C771.873 29.542 772.196 26.179 772.842 23.443C773.488 20.707 774.419 18.522 775.635 16.888C776.889 15.216 778.428 14.019 780.252 13.297C782.076 12.575 784.185 12.214 786.579 12.214C789.467 12.214 791.861 12.746 793.761 13.81C795.699 14.874 797.124 16.337 798.036 18.199C798.986 20.023 799.461 22.151 799.461 24.583H791.766C791.766 23.253 791.576 22.132 791.196 21.22C790.816 20.27 790.227 19.548 789.429 19.054C788.631 18.56 787.624 18.313 786.408 18.313C784.622 18.313 783.254 18.788 782.304 19.738C781.392 20.65 780.765 21.999 780.423 23.785C780.119 25.571 779.948 27.737 779.91 30.283C780.29 29.903 780.86 29.447 781.62 28.915C782.418 28.383 783.406 27.927 784.584 27.547C785.762 27.129 787.035 26.92 788.403 26.92C791.101 26.92 793.362 27.471 795.186 28.573C797.048 29.637 798.435 31.119 799.347 33.019C800.259 34.919 800.715 37.123 800.715 39.631C800.715 42.329 800.107 44.666 798.891 46.642C797.713 48.58 796.079 50.081 793.989 51.145C791.937 52.171 789.543 52.684 786.807 52.684ZM786.522 46.528C787.928 46.528 789.087 46.243 789.999 45.673C790.911 45.065 791.595 44.248 792.051 43.222C792.507 42.158 792.735 40.98 792.735 39.688C792.735 38.32 792.507 37.123 792.051 36.097C791.595 35.071 790.911 34.273 789.999 33.703C789.087 33.095 787.928 32.791 786.522 32.791C785.154 32.791 783.995 33.095 783.045 33.703C782.133 34.273 781.449 35.071 780.993 36.097C780.537 37.123 780.309 38.32 780.309 39.688C780.309 41.018 780.537 42.215 780.993 43.279C781.449 44.305 782.133 45.103 783.045 45.673C783.995 46.243 785.154 46.528 786.522 46.528ZM821.731 52.684C819.375 52.684 817.304 52.342 815.518 51.658C813.732 50.936 812.231 49.796 811.015 48.238C809.837 46.642 808.944 44.552 808.336 41.968C807.766 39.384 807.481 36.211 807.481 32.449C807.481 28.649 807.766 25.476 808.336 22.93C808.944 20.346 809.837 18.256 811.015 16.66C812.231 15.064 813.732 13.924 815.518 13.24C817.304 12.556 819.375 12.214 821.731 12.214C824.125 12.214 826.196 12.556 827.944 13.24C829.692 13.924 831.155 15.064 832.333 16.66C833.549 18.256 834.442 20.346 835.012 22.93C835.62 25.476 835.924 28.649 835.924 32.449C835.924 36.211 835.62 39.384 835.012 41.968C834.442 44.552 833.549 46.642 832.333 48.238C831.155 49.796 829.692 50.936 827.944 51.658C826.196 52.342 824.125 52.684 821.731 52.684ZM821.731 46.528C823.403 46.528 824.676 46.091 825.55 45.217C826.424 44.305 827.032 42.937 827.374 41.113C827.716 39.289 827.887 37.009 827.887 34.273V30.739C827.887 27.965 827.716 25.666 827.374 23.842C827.032 21.98 826.424 20.593 825.55 19.681C824.676 18.769 823.403 18.313 821.731 18.313C820.059 18.313 818.767 18.769 817.855 19.681C816.981 20.593 816.373 21.961 816.031 23.785C815.689 25.571 815.518 27.851 815.518 30.625V34.159C815.518 36.933 815.689 39.251 816.031 41.113C816.373 42.937 816.981 44.305 817.855 45.217C818.767 46.091 820.059 46.528 821.731 46.528Z" fill="black"/>
<path d="M165.683 90.3636H168.406L173.852 99.5298H174.082L179.528 90.3636H182.251L175.156 101.908V110H172.778V101.908L165.683 90.3636ZM209.881 100.182C209.881 102.253 209.507 104.043 208.76 105.551C208.012 107.06 206.986 108.223 205.682 109.041C204.378 109.859 202.889 110.268 201.214 110.268C199.539 110.268 198.05 109.859 196.746 109.041C195.442 108.223 194.416 107.06 193.668 105.551C192.92 104.043 192.546 102.253 192.546 100.182C192.546 98.1108 192.92 96.321 193.668 94.8125C194.416 93.304 195.442 92.1406 196.746 91.3224C198.05 90.5043 199.539 90.0952 201.214 90.0952C202.889 90.0952 204.378 90.5043 205.682 91.3224C206.986 92.1406 208.012 93.304 208.76 94.8125C209.507 96.321 209.881 98.1108 209.881 100.182ZM207.58 100.182C207.58 98.4815 207.296 97.0465 206.727 95.8768C206.164 94.707 205.401 93.8217 204.435 93.2209C203.477 92.62 202.403 92.3196 201.214 92.3196C200.025 92.3196 198.948 92.62 197.983 93.2209C197.024 93.8217 196.26 94.707 195.691 95.8768C195.129 97.0465 194.847 98.4815 194.847 100.182C194.847 101.882 195.129 103.317 195.691 104.487C196.26 105.657 197.024 106.542 197.983 107.143C198.948 107.744 200.025 108.044 201.214 108.044C202.403 108.044 203.477 107.744 204.435 107.143C205.401 106.542 206.164 105.657 206.727 104.487C207.296 103.317 207.58 101.882 207.58 100.182ZM235.676 90.3636H238.054V103.365C238.054 104.707 237.737 105.906 237.105 106.961C236.478 108.009 235.593 108.837 234.449 109.444C233.305 110.045 231.962 110.345 230.422 110.345C228.881 110.345 227.539 110.045 226.395 109.444C225.251 108.837 224.362 108.009 223.729 106.961C223.103 105.906 222.79 104.707 222.79 103.365V90.3636H225.167V103.173C225.167 104.132 225.378 104.985 225.8 105.733C226.222 106.475 226.823 107.06 227.603 107.488C228.389 107.91 229.329 108.121 230.422 108.121C231.515 108.121 232.454 107.91 233.241 107.488C234.027 107.06 234.628 106.475 235.043 105.733C235.465 104.985 235.676 104.132 235.676 103.173V90.3636ZM251.712 110V90.3636H258.347C259.881 90.3636 261.141 90.6257 262.125 91.1499C263.109 91.6676 263.838 92.3803 264.311 93.288C264.784 94.1957 265.021 95.228 265.021 96.3849C265.021 97.5419 264.784 98.5678 264.311 99.4627C263.838 100.358 263.113 101.061 262.135 101.572C261.157 102.077 259.907 102.33 258.386 102.33H253.016V100.182H258.309C259.357 100.182 260.201 100.028 260.84 99.7216C261.486 99.4148 261.952 98.9801 262.24 98.4176C262.534 97.8487 262.681 97.1712 262.681 96.3849C262.681 95.5987 262.534 94.9116 262.24 94.3235C261.946 93.7354 261.476 93.2816 260.831 92.962C260.185 92.636 259.332 92.473 258.271 92.473H254.09V110H251.712ZM260.955 101.179L265.788 110H263.026L258.271 101.179H260.955ZM295.202 90.3636L301.032 106.893H301.262L307.091 90.3636H309.584L302.374 110H299.919L292.709 90.3636H295.202ZM323.931 90.3636V110H321.553V90.3636H323.931ZM348.347 95.2727C348.232 94.3011 347.765 93.5469 346.947 93.0099C346.129 92.473 345.125 92.2045 343.936 92.2045C343.067 92.2045 342.306 92.3452 341.654 92.6264C341.009 92.9077 340.504 93.2944 340.139 93.7866C339.781 94.2788 339.603 94.8381 339.603 95.4645C339.603 95.9886 339.727 96.4393 339.976 96.8164C340.232 97.1871 340.558 97.4972 340.954 97.7464C341.351 97.9893 341.766 98.1907 342.201 98.3505C342.636 98.5039 343.035 98.6286 343.399 98.7244L345.394 99.2614C345.905 99.3956 346.474 99.581 347.1 99.8175C347.733 100.054 348.337 100.377 348.913 100.786C349.494 101.189 349.974 101.706 350.351 102.339C350.728 102.972 350.916 103.749 350.916 104.669C350.916 105.73 350.638 106.689 350.082 107.545C349.533 108.402 348.727 109.083 347.666 109.588C346.611 110.093 345.33 110.345 343.821 110.345C342.415 110.345 341.197 110.118 340.168 109.664C339.145 109.211 338.34 108.578 337.752 107.766C337.17 106.954 336.841 106.011 336.764 104.938H339.219C339.283 105.679 339.532 106.293 339.967 106.778C340.408 107.258 340.964 107.616 341.635 107.852C342.313 108.082 343.041 108.197 343.821 108.197C344.729 108.197 345.544 108.05 346.266 107.756C346.989 107.456 347.561 107.04 347.982 106.51C348.404 105.973 348.615 105.347 348.615 104.631C348.615 103.979 348.433 103.448 348.069 103.039C347.704 102.63 347.225 102.298 346.631 102.042C346.036 101.786 345.394 101.562 344.703 101.371L342.287 100.68C340.753 100.239 339.539 99.6097 338.644 98.7915C337.749 97.9734 337.301 96.9027 337.301 95.5795C337.301 94.4801 337.599 93.5213 338.193 92.7031C338.794 91.8786 339.599 91.2393 340.609 90.7855C341.626 90.3253 342.76 90.0952 344.013 90.0952C345.279 90.0952 346.404 90.3221 347.388 90.7759C348.372 91.2234 349.152 91.837 349.728 92.6168C350.309 93.3967 350.616 94.282 350.648 95.2727H348.347ZM366.114 90.3636V110H363.736V90.3636H366.114ZM396.36 100.182C396.36 102.253 395.986 104.043 395.238 105.551C394.49 107.06 393.464 108.223 392.16 109.041C390.856 109.859 389.367 110.268 387.692 110.268C386.017 110.268 384.528 109.859 383.224 109.041C381.92 108.223 380.894 107.06 380.146 105.551C379.398 104.043 379.024 102.253 379.024 100.182C379.024 98.1108 379.398 96.321 380.146 94.8125C380.894 93.304 381.92 92.1406 383.224 91.3224C384.528 90.5043 386.017 90.0952 387.692 90.0952C389.367 90.0952 390.856 90.5043 392.16 91.3224C393.464 92.1406 394.49 93.304 395.238 94.8125C395.986 96.321 396.36 98.1108 396.36 100.182ZM394.059 100.182C394.059 98.4815 393.774 97.0465 393.205 95.8768C392.643 94.707 391.879 93.8217 390.914 93.2209C389.955 92.62 388.881 92.3196 387.692 92.3196C386.503 92.3196 385.426 92.62 384.461 93.2209C383.502 93.8217 382.738 94.707 382.169 95.8768C381.607 97.0465 381.326 98.4815 381.326 100.182C381.326 101.882 381.607 103.317 382.169 104.487C382.738 105.657 383.502 106.542 384.461 107.143C385.426 107.744 386.503 108.044 387.692 108.044C388.881 108.044 389.955 107.744 390.914 107.143C391.879 106.542 392.643 105.657 393.205 104.487C393.774 103.317 394.059 101.882 394.059 100.182ZM424.839 90.3636V110H422.538L411.837 94.5824H411.646V110H409.268V90.3636H411.569L422.308 105.82H422.499V90.3636H424.839ZM439.849 110.153C439.376 110.153 438.97 109.984 438.632 109.645C438.293 109.306 438.123 108.901 438.123 108.428C438.123 107.955 438.293 107.549 438.632 107.21C438.97 106.871 439.376 106.702 439.849 106.702C440.322 106.702 440.728 106.871 441.067 107.21C441.406 107.549 441.575 107.955 441.575 108.428C441.575 108.741 441.495 109.028 441.335 109.29C441.182 109.553 440.974 109.763 440.712 109.923C440.457 110.077 440.169 110.153 439.849 110.153ZM487.924 100.182C487.924 102.253 487.551 104.043 486.803 105.551C486.055 107.06 485.029 108.223 483.725 109.041C482.421 109.859 480.932 110.268 479.257 110.268C477.582 110.268 476.093 109.859 474.789 109.041C473.485 108.223 472.459 107.06 471.711 105.551C470.963 104.043 470.589 102.253 470.589 100.182C470.589 98.1108 470.963 96.321 471.711 94.8125C472.459 93.304 473.485 92.1406 474.789 91.3224C476.093 90.5043 477.582 90.0952 479.257 90.0952C480.932 90.0952 482.421 90.5043 483.725 91.3224C485.029 92.1406 486.055 93.304 486.803 94.8125C487.551 96.321 487.924 98.1108 487.924 100.182ZM485.623 100.182C485.623 98.4815 485.339 97.0465 484.77 95.8768C484.207 94.707 483.444 93.8217 482.478 93.2209C481.52 92.62 480.446 92.3196 479.257 92.3196C478.068 92.3196 476.991 92.62 476.026 93.2209C475.067 93.8217 474.303 94.707 473.734 95.8768C473.172 97.0465 472.89 98.4815 472.89 100.182C472.89 101.882 473.172 103.317 473.734 104.487C474.303 105.657 475.067 106.542 476.026 107.143C476.991 107.744 478.068 108.044 479.257 108.044C480.446 108.044 481.52 107.744 482.478 107.143C483.444 106.542 484.207 105.657 484.77 104.487C485.339 103.317 485.623 101.882 485.623 100.182ZM513.719 90.3636H516.097V103.365C516.097 104.707 515.78 105.906 515.148 106.961C514.521 108.009 513.636 108.837 512.492 109.444C511.348 110.045 510.005 110.345 508.465 110.345C506.924 110.345 505.582 110.045 504.438 109.444C503.294 108.837 502.405 108.009 501.772 106.961C501.146 105.906 500.833 104.707 500.833 103.365V90.3636H503.211V103.173C503.211 104.132 503.421 104.985 503.843 105.733C504.265 106.475 504.866 107.06 505.646 107.488C506.432 107.91 507.372 108.121 508.465 108.121C509.558 108.121 510.497 107.91 511.284 107.488C512.07 107.06 512.671 106.475 513.086 105.733C513.508 104.985 513.719 104.132 513.719 103.173V90.3636ZM529.755 110V90.3636H536.39C537.924 90.3636 539.184 90.6257 540.168 91.1499C541.152 91.6676 541.881 92.3803 542.354 93.288C542.827 94.1957 543.064 95.228 543.064 96.3849C543.064 97.5419 542.827 98.5678 542.354 99.4627C541.881 100.358 541.156 101.061 540.178 101.572C539.2 102.077 537.95 102.33 536.429 102.33H531.059V100.182H536.352C537.4 100.182 538.244 100.028 538.883 99.7216C539.529 99.4148 539.995 98.9801 540.283 98.4176C540.577 97.8487 540.724 97.1712 540.724 96.3849C540.724 95.5987 540.577 94.9116 540.283 94.3235C539.989 93.7354 539.519 93.2816 538.874 92.962C538.228 92.636 537.375 92.473 536.314 92.473H532.133V110H529.755ZM538.998 101.179L543.831 110H541.069L536.314 101.179H538.998ZM571.366 92.473V90.3636H586.093V92.473H579.918V110H577.54V92.473H571.366ZM598.673 110V90.3636H610.524V92.473H601.051V99.108H609.91V101.217H601.051V107.891H610.677V110H598.673ZM639.521 96.5H637.143C637.002 95.8161 636.756 95.2152 636.405 94.6974C636.059 94.1797 635.638 93.745 635.139 93.3935C634.647 93.0355 634.1 92.767 633.499 92.5881C632.899 92.4091 632.272 92.3196 631.62 92.3196C630.431 92.3196 629.354 92.62 628.389 93.2209C627.43 93.8217 626.666 94.707 626.097 95.8768C625.535 97.0465 625.254 98.4815 625.254 100.182C625.254 101.882 625.535 103.317 626.097 104.487C626.666 105.657 627.43 106.542 628.389 107.143C629.354 107.744 630.431 108.044 631.62 108.044C632.272 108.044 632.899 107.955 633.499 107.776C634.1 107.597 634.647 107.331 635.139 106.98C635.638 106.622 636.059 106.184 636.405 105.666C636.756 105.142 637.002 104.541 637.143 103.864H639.521C639.342 104.867 639.016 105.765 638.543 106.558C638.07 107.35 637.482 108.025 636.779 108.581C636.075 109.131 635.286 109.549 634.41 109.837C633.541 110.125 632.611 110.268 631.62 110.268C629.945 110.268 628.456 109.859 627.152 109.041C625.848 108.223 624.822 107.06 624.074 105.551C623.326 104.043 622.953 102.253 622.953 100.182C622.953 98.1108 623.326 96.321 624.074 94.8125C624.822 93.304 625.848 92.1406 627.152 91.3224C628.456 90.5043 629.945 90.0952 631.62 90.0952C632.611 90.0952 633.541 90.239 634.41 90.5266C635.286 90.8143 636.075 91.2362 636.779 91.7923C637.482 92.342 638.07 93.0131 638.543 93.8058C639.016 94.592 639.342 95.4901 639.521 96.5ZM652.273 110V90.3636H654.651V99.108H665.121V90.3636H667.499V110H665.121V101.217H654.651V110H652.273ZM696.74 90.3636V110H694.439L683.739 94.5824H683.547V110H681.169V90.3636H683.471L694.209 105.82H694.401V90.3636H696.74ZM726.977 100.182C726.977 102.253 726.603 104.043 725.855 105.551C725.107 107.06 724.081 108.223 722.777 109.041C721.473 109.859 719.984 110.268 718.309 110.268C716.634 110.268 715.145 109.859 713.841 109.041C712.537 108.223 711.511 107.06 710.763 105.551C710.015 104.043 709.642 102.253 709.642 100.182C709.642 98.1108 710.015 96.321 710.763 94.8125C711.511 93.304 712.537 92.1406 713.841 91.3224C715.145 90.5043 716.634 90.0952 718.309 90.0952C719.984 90.0952 721.473 90.5043 722.777 91.3224C724.081 92.1406 725.107 93.304 725.855 94.8125C726.603 96.321 726.977 98.1108 726.977 100.182ZM724.676 100.182C724.676 98.4815 724.391 97.0465 723.822 95.8768C723.26 94.707 722.496 93.8217 721.531 93.2209C720.572 92.62 719.498 92.3196 718.309 92.3196C717.12 92.3196 716.043 92.62 715.078 93.2209C714.119 93.8217 713.355 94.707 712.786 95.8768C712.224 97.0465 711.943 98.4815 711.943 100.182C711.943 101.882 712.224 103.317 712.786 104.487C713.355 105.657 714.119 106.542 715.078 107.143C716.043 107.744 717.12 108.044 718.309 108.044C719.498 108.044 720.572 107.744 721.531 107.143C722.496 106.542 723.26 105.657 723.822 104.487C724.391 103.317 724.676 101.882 724.676 100.182ZM739.885 110V90.3636H742.263V107.891H751.391V110H739.885ZM779.786 100.182C779.786 102.253 779.412 104.043 778.664 105.551C777.916 107.06 776.89 108.223 775.586 109.041C774.282 109.859 772.793 110.268 771.118 110.268C769.444 110.268 767.954 109.859 766.65 109.041C765.346 108.223 764.32 107.06 763.573 105.551C762.825 104.043 762.451 102.253 762.451 100.182C762.451 98.1108 762.825 96.321 763.573 94.8125C764.32 93.304 765.346 92.1406 766.65 91.3224C767.954 90.5043 769.444 90.0952 771.118 90.0952C772.793 90.0952 774.282 90.5043 775.586 91.3224C776.89 92.1406 777.916 93.304 778.664 94.8125C779.412 96.321 779.786 98.1108 779.786 100.182ZM777.485 100.182C777.485 98.4815 777.2 97.0465 776.632 95.8768C776.069 94.707 775.305 93.8217 774.34 93.2209C773.381 92.62 772.307 92.3196 771.118 92.3196C769.929 92.3196 768.852 92.62 767.887 93.2209C766.928 93.8217 766.165 94.707 765.596 95.8768C765.033 97.0465 764.752 98.4815 764.752 100.182C764.752 101.882 765.033 103.317 765.596 104.487C766.165 105.657 766.928 106.542 767.887 107.143C768.852 107.744 769.929 108.044 771.118 108.044C772.307 108.044 773.381 107.744 774.34 107.143C775.305 106.542 776.069 105.657 776.632 104.487C777.2 103.317 777.485 101.882 777.485 100.182ZM806.118 96.5C805.907 95.8544 805.629 95.2759 805.283 94.7646C804.945 94.2468 804.539 93.8058 804.066 93.4414C803.599 93.0771 803.069 92.799 802.474 92.6072C801.88 92.4155 801.228 92.3196 800.518 92.3196C799.355 92.3196 798.297 92.62 797.344 93.2209C796.392 93.8217 795.635 94.707 795.072 95.8768C794.51 97.0465 794.228 98.4815 794.228 100.182C794.228 101.882 794.513 103.317 795.082 104.487C795.651 105.657 796.421 106.542 797.392 107.143C798.364 107.744 799.457 108.044 800.672 108.044C801.797 108.044 802.787 107.804 803.644 107.325C804.507 106.839 805.178 106.155 805.657 105.273C806.143 104.385 806.386 103.339 806.386 102.138L807.115 102.291H801.208V100.182H808.687V102.291C808.687 103.908 808.342 105.315 807.652 106.51C806.968 107.705 806.022 108.632 804.814 109.29C803.612 109.942 802.231 110.268 800.672 110.268C798.933 110.268 797.405 109.859 796.088 109.041C794.778 108.223 793.755 107.06 793.02 105.551C792.292 104.043 791.927 102.253 791.927 100.182C791.927 98.6286 792.135 97.2319 792.55 95.9918C792.972 94.7454 793.567 93.6843 794.334 92.8086C795.101 91.9329 796.009 91.2617 797.057 90.7951C798.105 90.3285 799.259 90.0952 800.518 90.0952C801.554 90.0952 802.519 90.2518 803.414 90.565C804.315 90.8718 805.117 91.3097 805.82 91.8786C806.53 92.4411 807.121 93.1154 807.594 93.9016C808.067 94.6815 808.393 95.5476 808.572 96.5H806.118ZM819.376 90.3636H822.099L827.545 99.5298H827.775L833.221 90.3636H835.944L828.849 101.908V110H826.471V101.908L819.376 90.3636Z" fill="black"/>
</svg>
